<?xml version="1.0" encoding="utf-8"?>
<!-- Generator: Adobe Illustrator 16.0.4, SVG Export Plug-In . SVG Version: 6.00 Build 0)  -->
<!DOCTYPE svg PUBLIC "-//W3C//DTD SVG 1.1//EN" "http://www.w3.org/Graphics/SVG/1.1/DTD/svg11.dtd">
<svg version="1.1" id="Layer_1" xmlns="http://www.w3.org/2000/svg" xmlns:xlink="http://www.w3.org/1999/xlink" x="0px" y="0px"
	 width="299.037px" height="75.623px" viewBox="0 0 299.037 75.623" enable-background="new 0 0 299.037 75.623"
	 xml:space="preserve">
<g>
	<rect fill="none" width="299.037" height="75.623"/>
	<path fill="#0079C1" d="M31.439,46.067l-2.422,8.72h-7.91l10.332-33.959h10.076l10.586,33.959h-8.314l-2.623-8.72H31.439z
		 M40.057,40.328l-2.115-7.203c-0.605-2.023-1.211-4.537-1.715-6.555h-0.1c-0.506,2.018-1.008,4.582-1.561,6.555l-2.021,7.203
		H40.057z M44.73,20.828l1.977,6.445h8.066v27.514h7.664V27.273h8.828v27.363c1.715,0.256,4.537,0.504,8.314,0.504
		c6.752,0,10.887-1.106,13.357-3.072c2.113-1.711,3.527-4.133,3.527-7.256c0-4.338-2.67-7.271-6.551-8.28v-0.098
		c3.828-1.463,5.391-4.078,5.391-7.047c0-3.127-1.662-5.445-4.031-6.705c-2.521-1.463-5.352-1.854-10.039-1.854L44.73,20.828
		L44.73,20.828z M78.877,27.268h3.275c3.477,0,5.322,1.23,5.322,3.805c0,2.516-1.994,3.139-6.078,3.139h-2.52L78.877,27.268
		L78.877,27.268z M81.854,49.447c-1.312,0-2.223,0-2.977-0.103v-9.572h2.621c3.83,0,6.902,1.357,6.902,4.738
		C88.4,48.086,85.328,49.447,81.854,49.447z"/>
	<path fill="#6D6E71" d="M112.668,20.787h18.312v3.684h-13.873v11.301h12.814v3.631h-12.814V54.79h-4.439V20.787L112.668,20.787z
		 M141.17,23.512c0,1.514-1.061,2.725-2.826,2.725c-1.613,0-2.674-1.211-2.674-2.725c0-1.514,1.109-2.775,2.775-2.775
		C140.061,20.736,141.17,21.947,141.17,23.512z M136.225,54.789V30.373h4.439v24.416H136.225z M146.011,36.98
		c0-2.572-0.051-4.59-0.203-6.607h3.936l0.252,4.035h0.103c1.211-2.27,4.034-4.539,8.071-4.539c3.379,0,8.627,2.018,8.627,10.391
		v14.529h-4.44V40.715c0-3.936-1.463-7.215-5.649-7.215c-2.877,0-5.146,2.068-5.953,4.541c-0.203,0.556-0.305,1.312-0.305,2.067
		v14.681h-4.438V36.98L146.011,36.98z M189.142,48.938c0,2.119,0.101,4.188,0.353,5.852h-3.986l-0.353-3.076h-0.151
		c-1.36,1.916-3.985,3.631-7.465,3.631c-4.945,0-7.47-3.479-7.47-7.012c0-5.902,5.248-9.131,14.683-9.08v-0.506
		c0-1.967-0.555-5.65-5.549-5.6c-2.32,0-4.69,0.656-6.406,1.816l-1.01-2.977c2.019-1.26,4.996-2.117,8.071-2.117
		c7.466,0,9.283,5.094,9.283,9.938V48.938L189.142,48.938z M184.853,42.33c-4.844-0.103-10.342,0.756-10.342,5.498
		c0,2.926,1.916,4.237,4.137,4.237c3.229,0,5.297-2.02,6.004-4.086c0.15-0.506,0.201-1.01,0.201-1.414V42.33z M193.781,36.98
		c0-2.572-0.052-4.59-0.201-6.607h3.935l0.254,4.035h0.102c1.209-2.27,4.035-4.539,8.07-4.539c3.381,0,8.627,2.018,8.627,10.391
		v14.529h-4.439V40.715c0-3.936-1.463-7.215-5.65-7.215c-2.877,0-5.146,2.068-5.953,4.541c-0.2,0.556-0.303,1.312-0.303,2.067
		v14.681h-4.438V36.98H193.781z M237.162,53.933c-1.158,0.555-3.731,1.411-7.011,1.411c-7.366,0-12.159-4.993-12.159-12.459
		c0-7.518,5.146-13.016,13.116-13.016c2.623,0,4.943,0.654,6.156,1.311l-1.012,3.379c-1.059-0.555-2.723-1.16-5.145-1.16
		c-5.599,0-8.627,4.188-8.627,9.232c0,5.65,3.633,9.132,8.475,9.132c2.523,0,4.188-0.605,5.451-1.16L237.162,53.933z
		 M246.292,23.512c0,1.514-1.061,2.725-2.824,2.725c-1.617,0-2.674-1.211-2.674-2.725c0-1.514,1.109-2.775,2.773-2.775
		C245.181,20.736,246.292,21.947,246.292,23.512z M241.349,54.789V30.373h4.438v24.416H241.349z M268.791,48.938
		c0,2.119,0.103,4.188,0.353,5.852h-3.984l-0.352-3.076h-0.152c-1.361,1.916-3.986,3.631-7.467,3.631
		c-4.943,0-7.467-3.479-7.467-7.012c0-5.902,5.247-9.131,14.682-9.08v-0.506c0-1.967-0.555-5.65-5.549-5.6
		c-2.322,0-4.691,0.656-6.406,1.816l-1.012-2.977c2.02-1.26,4.996-2.117,8.073-2.117c7.466,0,9.281,5.094,9.281,9.938V48.938
		L268.791,48.938z M264.501,42.33c-4.842-0.103-10.34,0.756-10.34,5.498c0,2.926,1.916,4.237,4.137,4.237
		c3.229,0,5.295-2.02,6.004-4.086c0.148-0.506,0.199-1.01,0.199-1.414V42.33z M273.935,20.801h4.435v33.964h-4.435V20.801z
		 M282.138,21.387v-0.65h3.326v0.65h-1.275v3.25h-0.774v-3.25H282.138z M287.242,20.736l0.995,2.792l1.005-2.792h1.106v3.9h-0.715
		v-3.148l-1.08,3.148h-0.623l-1.09-3.148v3.148h-0.715v-3.9H287.242z"/>
</g>
</svg>
